<svg width="100" height="100" viewBox="0 0 100 100" fill="none" xmlns="http://www.w3.org/2000/svg">
<rect width="100" height="100" fill="#D9D9D9"/>
<path d="M58.8096 48.5422C58.5799 47.152 58.0261 45.8355 57.1928 44.6993C56.3596 43.563 55.2705 42.639 54.0137 42.0021C52.7569 41.3651 51.3677 41.0332 49.9587 41.0331C48.5497 41.0329 47.1605 41.3647 45.9036 42.0015C44.2203 42.8605 42.8512 44.2291 41.9917 45.9122C41.1322 47.5952 40.8261 49.5067 41.1171 51.374C41.3941 53.27 42.2726 55.0269 43.6231 56.3861C44.9737 57.7485 46.7348 58.6291 48.6351 58.8921C50.5034 59.195 52.4195 58.8942 54.1051 58.0334C55.7906 57.1726 57.1577 55.7966 58.0077 54.1056C58.8781 52.3893 59.1598 50.4344 58.8096 48.5422V48.5422ZM55.9277 51.2988C55.7001 52.477 55.1239 53.5595 54.2737 54.4063C53.4221 55.2547 52.3426 55.838 51.1662 56.0854C50.77 56.1642 50.3673 56.2061 49.9633 56.2107C49.1631 56.2029 48.3719 56.0412 47.6327 55.7345C46.5257 55.2955 45.5747 54.5364 44.9012 53.5543C44.3524 52.7189 44.0115 51.7644 43.9069 50.7704C43.8022 49.7764 43.9369 48.7718 44.2997 47.8405C44.5861 47.0795 45.0302 46.3878 45.6028 45.8106C46.1664 45.221 46.8501 44.7595 47.6077 44.4574C48.3512 44.1363 49.1535 43.9741 49.9633 43.9812H50.5648C51.573 44.1139 52.5305 44.5021 53.3465 45.1089C54.3435 45.7856 55.1261 46.7335 55.6019 47.8405C56.0439 48.9372 56.1571 50.1389 55.9277 51.2988ZM58.8096 48.5422C58.5799 47.152 58.0261 45.8355 57.1928 44.6993C56.3596 43.563 55.2705 42.639 54.0137 42.0021C52.7569 41.3651 51.3677 41.0332 49.9587 41.0331C48.5497 41.0329 47.1605 41.3647 45.9036 42.0015C44.2203 42.8605 42.8512 44.2291 41.9917 45.9122C41.1322 47.5952 40.8261 49.5067 41.1171 51.374C41.3941 53.27 42.2726 55.0269 43.6231 56.3861C44.9737 57.7485 46.7348 58.6291 48.6351 58.8921C50.5034 59.195 52.4195 58.8942 54.1051 58.0334C55.7906 57.1726 57.1577 55.7966 58.0077 54.1056C58.8781 52.3893 59.1598 50.4344 58.8096 48.5422V48.5422ZM55.9277 51.2988C55.7001 52.477 55.1239 53.5595 54.2737 54.4063C53.4221 55.2547 52.3426 55.838 51.1662 56.0854C50.77 56.1642 50.3673 56.2061 49.9633 56.2107C49.1631 56.2029 48.3719 56.0412 47.6327 55.7345C46.5257 55.2955 45.5747 54.5364 44.9012 53.5543C44.3524 52.7189 44.0115 51.7644 43.9069 50.7704C43.8022 49.7764 43.9369 48.7718 44.2997 47.8405C44.5861 47.0795 45.0302 46.3878 45.6028 45.8106C46.1664 45.221 46.8501 44.7595 47.6077 44.4574C48.3512 44.1363 49.1535 43.9741 49.9633 43.9812H50.5648C51.573 44.1139 52.5305 44.5021 53.3465 45.1089C54.3435 45.7856 55.1261 46.7335 55.6019 47.8405C56.0439 48.9372 56.1571 50.1389 55.9277 51.2988ZM58.8096 48.5422C58.5799 47.152 58.0261 45.8355 57.1928 44.6993C56.3596 43.563 55.2705 42.639 54.0137 42.0021C52.7569 41.3651 51.3677 41.0332 49.9587 41.0331C48.5497 41.0329 47.1605 41.3647 45.9036 42.0015C44.2203 42.8605 42.8512 44.2291 41.9917 45.9122C41.1322 47.5952 40.8261 49.5067 41.1171 51.374C41.3941 53.27 42.2726 55.0269 43.6231 56.3861C44.9737 57.7485 46.7348 58.6291 48.6351 58.8921C50.5034 59.195 52.4195 58.8942 54.1051 58.0334C55.7906 57.1726 57.1577 55.7966 58.0077 54.1056C58.8781 52.3893 59.1598 50.4344 58.8096 48.5422V48.5422ZM55.9277 51.2988C55.7001 52.477 55.1239 53.5595 54.2737 54.4063C53.4221 55.2547 52.3426 55.838 51.1662 56.0854C50.77 56.1642 50.3673 56.2061 49.9633 56.2107C49.1631 56.2029 48.3719 56.0412 47.6327 55.7345C46.5257 55.2955 45.5747 54.5364 44.9012 53.5543C44.3524 52.7189 44.0115 51.7644 43.9069 50.7704C43.8022 49.7764 43.9369 48.7718 44.2997 47.8405C44.5861 47.0795 45.0302 46.3878 45.6028 45.8106C46.1664 45.221 46.8501 44.7595 47.6077 44.4574C48.3512 44.1363 49.1535 43.9741 49.9633 43.9812H50.5648C51.573 44.1139 52.5305 44.5021 53.3465 45.1089C54.3435 45.7856 55.1261 46.7335 55.6019 47.8405C56.0439 48.9372 56.1571 50.1389 55.9277 51.2988ZM58.8096 48.5422C58.5799 47.152 58.0261 45.8355 57.1928 44.6993C56.3596 43.563 55.2705 42.639 54.0137 42.0021C52.7569 41.3651 51.3677 41.0332 49.9587 41.0331C48.5497 41.0329 47.1605 41.3647 45.9036 42.0015C44.2203 42.8605 42.8512 44.2291 41.9917 45.9122C41.1322 47.5952 40.8261 49.5067 41.1171 51.374C41.3941 53.27 42.2726 55.0269 43.6231 56.3861C44.9737 57.7485 46.7348 58.6291 48.6351 58.8921C50.5034 59.195 52.4195 58.8942 54.1051 58.0334C55.7906 57.1726 57.1577 55.7966 58.0077 54.1056C58.8781 52.3893 59.1598 50.4344 58.8096 48.5422V48.5422ZM55.9277 51.2988C55.7001 52.477 55.1239 53.5595 54.2737 54.4063C53.4221 55.2547 52.3426 55.838 51.1662 56.0854C50.77 56.1642 50.3673 56.2061 49.9633 56.2107C49.1631 56.2029 48.3719 56.0412 47.6327 55.7345C46.5257 55.2955 45.5747 54.5364 44.9012 53.5543C44.3524 52.7189 44.0115 51.7644 43.9069 50.7704C43.8022 49.7764 43.9369 48.7718 44.2997 47.8405C44.5861 47.0795 45.0302 46.3878 45.6028 45.8106C46.1664 45.221 46.8501 44.7595 47.6077 44.4574C48.3512 44.1363 49.1535 43.9741 49.9633 43.9812H50.5648C51.573 44.1139 52.5305 44.5021 53.3465 45.1089C54.3435 45.7856 55.1261 46.7335 55.6019 47.8405C56.0439 48.9372 56.1571 50.1389 55.9277 51.2988ZM58.8096 48.5422C58.5799 47.152 58.0261 45.8355 57.1928 44.6993C56.3596 43.563 55.2705 42.639 54.0137 42.0021C52.7569 41.3651 51.3677 41.0332 49.9587 41.0331C48.5497 41.0329 47.1605 41.3647 45.9036 42.0015C44.2203 42.8605 42.8512 44.2291 41.9917 45.9122C41.1322 47.5952 40.8261 49.5067 41.1171 51.374C41.3941 53.27 42.2726 55.0269 43.6231 56.3861C44.9737 57.7485 46.7348 58.6291 48.6351 58.8921C50.5034 59.195 52.4195 58.8942 54.1051 58.0334C55.7906 57.1726 57.1577 55.7966 58.0077 54.1056C58.8781 52.3893 59.1598 50.4344 58.8096 48.5422V48.5422ZM55.9277 51.2988C55.7001 52.477 55.1239 53.5595 54.2737 54.4063C53.4221 55.2547 52.3426 55.838 51.1662 56.0854C50.77 56.1642 50.3673 56.2061 49.9633 56.2107C49.1631 56.2029 48.3719 56.0412 47.6327 55.7345C46.5257 55.2955 45.5747 54.5364 44.9012 53.5543C44.3524 52.7189 44.0115 51.7644 43.9069 50.7704C43.8022 49.7764 43.9369 48.7718 44.2997 47.8405C44.5861 47.0795 45.0302 46.3878 45.6028 45.8106C46.1664 45.221 46.8501 44.7595 47.6077 44.4574C48.3512 44.1363 49.1535 43.9741 49.9633 43.9812H50.5648C51.573 44.1139 52.5305 44.5021 53.3465 45.1089C54.3435 45.7856 55.1261 46.7335 55.6019 47.8405C56.0439 48.9372 56.1571 50.1389 55.9277 51.2988ZM58.8096 48.5422C58.5799 47.152 58.0261 45.8355 57.1928 44.6993C56.3596 43.563 55.2705 42.639 54.0137 42.0021C52.7569 41.3651 51.3677 41.0332 49.9587 41.0331C48.5497 41.0329 47.1605 41.3647 45.9036 42.0015C44.2203 42.8605 42.8512 44.2291 41.9917 45.9122C41.1322 47.5952 40.8261 49.5067 41.1171 51.374C41.3941 53.27 42.2726 55.0269 43.6231 56.3861C44.9737 57.7485 46.7348 58.6291 48.6351 58.8921C50.5034 59.195 52.4195 58.8942 54.1051 58.0334C55.7906 57.1726 57.1577 55.7966 58.0077 54.1056C58.8781 52.3893 59.1598 50.4344 58.8096 48.5422V48.5422ZM55.9277 51.2988C55.7001 52.477 55.1239 53.5595 54.2737 54.4063C53.4221 55.2547 52.3426 55.838 51.1662 56.0854C50.77 56.1642 50.3673 56.2061 49.9633 56.2107C49.1631 56.2029 48.3719 56.0412 47.6327 55.7345C46.5257 55.2955 45.5747 54.5364 44.9012 53.5543C44.3524 52.7189 44.0115 51.7644 43.9069 50.7704C43.8022 49.7764 43.9369 48.7718 44.2997 47.8405C44.5861 47.0795 45.0302 46.3878 45.6028 45.8106C46.1664 45.221 46.8501 44.7595 47.6077 44.4574C48.3512 44.1363 49.1535 43.9741 49.9633 43.9812H50.5648C51.573 44.1139 52.5305 44.5021 53.3465 45.1089C54.3435 45.7856 55.1261 46.7335 55.6019 47.8405C56.0439 48.9372 56.1571 50.1389 55.9277 51.2988ZM75.5499 48.2164C72.9186 43.0289 65.2 31 49.9633 31C34.7267 31 26.983 43.0289 24.4018 48.2164C24.1373 48.7678 24 49.3716 24 49.9832C24 50.5947 24.1373 51.1985 24.4018 51.7499C26.9079 56.9374 34.6766 68.9663 49.9884 68.9663C65.3002 68.9663 72.9436 56.9374 75.5749 51.7499C75.8543 51.2029 76 50.5974 76 49.9832C76 49.3689 75.8543 48.7634 75.5749 48.2164H75.5499ZM71.4149 53.2285C69.2597 57.0322 66.1613 60.2168 62.4183 62.4757C58.6324 64.7677 54.3126 66.0291 49.8882 66.1345C45.4843 66.0402 41.1811 64.8004 37.402 62.5374C33.623 60.2744 30.4985 57.0661 28.3363 53.2285C27.8084 52.2529 27.5489 51.1546 27.5845 50.0458C27.5817 48.9485 27.8854 47.8722 28.4616 46.9383C30.5963 43.0819 33.7003 39.849 37.4668 37.5592C41.2333 35.2695 45.532 34.002 49.9383 33.8819V33.8819C54.3298 33.9868 58.6185 35.2316 62.3837 37.4942C66.1489 39.7568 69.2611 42.9595 71.4149 46.788C72.011 47.742 72.3239 48.8457 72.3171 49.9706C72.3205 51.103 72.008 52.2138 71.4149 53.1784V53.2285ZM56.3788 43.7056C55.0144 42.3622 53.26 41.485 51.3667 41.1995C49.5014 40.8996 47.589 41.1979 45.9036 42.0516C44.2294 42.9078 42.8666 44.2685 42.0077 45.9413C41.1488 47.6141 40.8373 49.5145 41.1171 51.374C41.3941 53.27 42.2726 55.0269 43.6231 56.3861C44.9737 57.7485 46.7348 58.6291 48.6351 58.8921C50.5034 59.195 52.4195 58.8942 54.1051 58.0334C55.7906 57.1726 57.1577 55.7966 58.0077 54.1056C58.8781 52.3893 59.1598 50.4344 58.8096 48.5422C58.504 46.6919 57.6278 44.9834 56.3036 43.6554L56.3788 43.7056ZM55.9277 51.2988C55.7001 52.477 55.1239 53.5595 54.2737 54.4063C53.4221 55.2547 52.3426 55.838 51.1662 56.0854C50.77 56.1642 50.3673 56.2061 49.9633 56.2107C49.1631 56.2029 48.3719 56.0412 47.6327 55.7345C46.5257 55.2955 45.5747 54.5364 44.9012 53.5543C44.3524 52.7189 44.0115 51.7644 43.9069 50.7704C43.8022 49.7764 43.9369 48.7718 44.2997 47.8405C44.5861 47.0795 45.0302 46.3878 45.6028 45.8106C46.1664 45.221 46.8501 44.7595 47.6077 44.4574C48.3512 44.1363 49.1535 43.9741 49.9633 43.9812H50.5648C51.573 44.1139 52.5305 44.5021 53.3465 45.1089C54.3435 45.7856 55.1261 46.7335 55.6019 47.8405C56.0439 48.9372 56.1571 50.1389 55.9277 51.2988ZM58.8096 48.5422C58.5799 47.152 58.0261 45.8355 57.1928 44.6993C56.3596 43.563 55.2705 42.639 54.0137 42.0021C52.7569 41.3651 51.3677 41.0332 49.9587 41.0331C48.5497 41.0329 47.1605 41.3647 45.9036 42.0015C44.2203 42.8605 42.8512 44.2291 41.9917 45.9122C41.1322 47.5952 40.8261 49.5067 41.1171 51.374C41.3941 53.27 42.2726 55.0269 43.6231 56.3861C44.9737 57.7485 46.7348 58.6291 48.6351 58.8921C50.5034 59.195 52.4195 58.8942 54.1051 58.0334C55.7906 57.1726 57.1577 55.7966 58.0077 54.1056C58.8781 52.3893 59.1598 50.4344 58.8096 48.5422V48.5422ZM55.9277 51.2988C55.7001 52.477 55.1239 53.5595 54.2737 54.4063C53.4221 55.2547 52.3426 55.838 51.1662 56.0854C50.77 56.1642 50.3673 56.2061 49.9633 56.2107C49.1631 56.2029 48.3719 56.0412 47.6327 55.7345C46.5257 55.2955 45.5747 54.5364 44.9012 53.5543C44.3524 52.7189 44.0115 51.7644 43.9069 50.7704C43.8022 49.7764 43.9369 48.7718 44.2997 47.8405C44.5861 47.0795 45.0302 46.3878 45.6028 45.8106C46.1664 45.221 46.8501 44.7595 47.6077 44.4574C48.3512 44.1363 49.1535 43.9741 49.9633 43.9812H50.5648C51.573 44.1139 52.5305 44.5021 53.3465 45.1089C54.3435 45.7856 55.1261 46.7335 55.6019 47.8405C56.0439 48.9372 56.1571 50.1389 55.9277 51.2988ZM58.8096 48.5422C58.5799 47.152 58.0261 45.8355 57.1928 44.6993C56.3596 43.563 55.2705 42.639 54.0137 42.0021C52.7569 41.3651 51.3677 41.0332 49.9587 41.0331C48.5497 41.0329 47.1605 41.3647 45.9036 42.0015C44.2203 42.8605 42.8512 44.2291 41.9917 45.9122C41.1322 47.5952 40.8261 49.5067 41.1171 51.374C41.3941 53.27 42.2726 55.0269 43.6231 56.3861C44.9737 57.7485 46.7348 58.6291 48.6351 58.8921C50.5034 59.195 52.4195 58.8942 54.1051 58.0334C55.7906 57.1726 57.1577 55.7966 58.0077 54.1056C58.8781 52.3893 59.1598 50.4344 58.8096 48.5422V48.5422ZM55.9277 51.2988C55.7001 52.477 55.1239 53.5595 54.2737 54.4063C53.4221 55.2547 52.3426 55.838 51.1662 56.0854C50.77 56.1642 50.3673 56.2061 49.9633 56.2107C49.1631 56.2029 48.3719 56.0412 47.6327 55.7345C46.5257 55.2955 45.5747 54.5364 44.9012 53.5543C44.3524 52.7189 44.0115 51.7644 43.9069 50.7704C43.8022 49.7764 43.9369 48.7718 44.2997 47.8405C44.5861 47.0795 45.0302 46.3878 45.6028 45.8106C46.1664 45.221 46.8501 44.7595 47.6077 44.4574C48.3512 44.1363 49.1535 43.9741 49.9633 43.9812H50.5648C51.573 44.1139 52.5305 44.5021 53.3465 45.1089C54.3435 45.7856 55.1261 46.7335 55.6019 47.8405C56.0439 48.9372 56.1571 50.1389 55.9277 51.2988ZM58.8096 48.5422C58.5799 47.152 58.0261 45.8355 57.1928 44.6993C56.3596 43.563 55.2705 42.639 54.0137 42.0021C52.7569 41.3651 51.3677 41.0332 49.9587 41.0331C48.5497 41.0329 47.1605 41.3647 45.9036 42.0015C44.2203 42.8605 42.8512 44.2291 41.9917 45.9122C41.1322 47.5952 40.8261 49.5067 41.1171 51.374C41.3941 53.27 42.2726 55.0269 43.6231 56.3861C44.9737 57.7485 46.7348 58.6291 48.6351 58.8921C50.5034 59.195 52.4195 58.8942 54.1051 58.0334C55.7906 57.1726 57.1577 55.7966 58.0077 54.1056C58.8781 52.3893 59.1598 50.4344 58.8096 48.5422V48.5422ZM55.9277 51.2988C55.7001 52.477 55.1239 53.5595 54.2737 54.4063C53.4221 55.2547 52.3426 55.838 51.1662 56.0854C50.77 56.1642 50.3673 56.2061 49.9633 56.2107C49.1631 56.2029 48.3719 56.0412 47.6327 55.7345C46.5257 55.2955 45.5747 54.5364 44.9012 53.5543C44.3524 52.7189 44.0115 51.7644 43.9069 50.7704C43.8022 49.7764 43.9369 48.7718 44.2997 47.8405C44.5861 47.0795 45.0302 46.3878 45.6028 45.8106C46.1664 45.221 46.8501 44.7595 47.6077 44.4574C48.3512 44.1363 49.1535 43.9741 49.9633 43.9812H50.5648C51.573 44.1139 52.5305 44.5021 53.3465 45.1089C54.3435 45.7856 55.1261 46.7335 55.6019 47.8405C56.0439 48.9372 56.1571 50.1389 55.9277 51.2988ZM58.8096 48.5422C58.5799 47.152 58.0261 45.8355 57.1928 44.6993C56.3596 43.563 55.2705 42.639 54.0137 42.0021C52.7569 41.3651 51.3677 41.0332 49.9587 41.0331C48.5497 41.0329 47.1605 41.3647 45.9036 42.0015C44.2203 42.8605 42.8512 44.2291 41.9917 45.9122C41.1322 47.5952 40.8261 49.5067 41.1171 51.374C41.3941 53.27 42.2726 55.0269 43.6231 56.3861C44.9737 57.7485 46.7348 58.6291 48.6351 58.8921C50.5034 59.195 52.4195 58.8942 54.1051 58.0334C55.7906 57.1726 57.1577 55.7966 58.0077 54.1056C58.8781 52.3893 59.1598 50.4344 58.8096 48.5422V48.5422ZM55.9277 51.2988C55.7001 52.477 55.1239 53.5595 54.2737 54.4063C53.4221 55.2547 52.3426 55.838 51.1662 56.0854C50.77 56.1642 50.3673 56.2061 49.9633 56.2107C49.1631 56.2029 48.3719 56.0412 47.6327 55.7345C46.5257 55.2955 45.5747 54.5364 44.9012 53.5543C44.3524 52.7189 44.0115 51.7644 43.9069 50.7704C43.8022 49.7764 43.9369 48.7718 44.2997 47.8405C44.5861 47.0795 45.0302 46.3878 45.6028 45.8106C46.1664 45.221 46.8501 44.7595 47.6077 44.4574C48.3512 44.1363 49.1535 43.9741 49.9633 43.9812H50.5648C51.573 44.1139 52.5305 44.5021 53.3465 45.1089C54.3435 45.7856 55.1261 46.7335 55.6019 47.8405C56.0439 48.9372 56.1571 50.1389 55.9277 51.2988ZM58.8096 48.5422C58.5799 47.152 58.0261 45.8355 57.1928 44.6993C56.3596 43.563 55.2705 42.639 54.0137 42.0021C52.7569 41.3651 51.3677 41.0332 49.9587 41.0331C48.5497 41.0329 47.1605 41.3647 45.9036 42.0015C44.2203 42.8605 42.8512 44.2291 41.9917 45.9122C41.1322 47.5952 40.8261 49.5067 41.1171 51.374C41.3941 53.27 42.2726 55.0269 43.6231 56.3861C44.9737 57.7485 46.7348 58.6291 48.6351 58.8921C50.5034 59.195 52.4195 58.8942 54.1051 58.0334C55.7906 57.1726 57.1577 55.7966 58.0077 54.1056C58.8781 52.3893 59.1598 50.4344 58.8096 48.5422V48.5422ZM55.9277 51.2988C55.7001 52.477 55.1239 53.5595 54.2737 54.4063C53.4221 55.2547 52.3426 55.838 51.1662 56.0854C50.77 56.1642 50.3673 56.2061 49.9633 56.2107C49.1631 56.2029 48.3719 56.0412 47.6327 55.7345C46.5257 55.2955 45.5747 54.5364 44.9012 53.5543C44.3524 52.7189 44.0115 51.7644 43.9069 50.7704C43.8022 49.7764 43.9369 48.7718 44.2997 47.8405C44.5861 47.0795 45.0302 46.3878 45.6028 45.8106C46.1664 45.221 46.8501 44.7595 47.6077 44.4574C48.3512 44.1363 49.1535 43.9741 49.9633 43.9812H50.5648C51.573 44.1139 52.5305 44.5021 53.3465 45.1089C54.3435 45.7856 55.1261 46.7335 55.6019 47.8405C56.0439 48.9372 56.1571 50.1389 55.9277 51.2988ZM58.8096 48.5422C58.5799 47.152 58.0261 45.8355 57.1928 44.6993C56.3596 43.563 55.2705 42.639 54.0137 42.0021C52.7569 41.3651 51.3677 41.0332 49.9587 41.0331C48.5497 41.0329 47.1605 41.3647 45.9036 42.0015C44.2203 42.8605 42.8512 44.2291 41.9917 45.9122C41.1322 47.5952 40.8261 49.5067 41.1171 51.374C41.3941 53.27 42.2726 55.0269 43.6231 56.3861C44.9737 57.7485 46.7348 58.6291 48.6351 58.8921C50.5034 59.195 52.4195 58.8942 54.1051 58.0334C55.7906 57.1726 57.1577 55.7966 58.0077 54.1056C58.8781 52.3893 59.1598 50.4344 58.8096 48.5422V48.5422ZM55.9277 51.2988C55.7001 52.477 55.1239 53.5595 54.2737 54.4063C53.4221 55.2547 52.3426 55.838 51.1662 56.0854C50.77 56.1642 50.3673 56.2061 49.9633 56.2107C49.1631 56.2029 48.3719 56.0412 47.6327 55.7345C46.5257 55.2955 45.5747 54.5364 44.9012 53.5543C44.3524 52.7189 44.0115 51.7644 43.9069 50.7704C43.8022 49.7764 43.9369 48.7718 44.2997 47.8405C44.5861 47.0795 45.0302 46.3878 45.6028 45.8106C46.1664 45.221 46.8501 44.7595 47.6077 44.4574C48.3512 44.1363 49.1535 43.9741 49.9633 43.9812H50.5648C51.573 44.1139 52.5305 44.5021 53.3465 45.1089C54.3435 45.7856 55.1261 46.7335 55.6019 47.8405C56.0439 48.9372 56.1571 50.1389 55.9277 51.2988Z" fill="#222223"/>
<path d="M71.4144 46.788C69.2649 42.9667 66.1606 39.7686 62.4049 37.5064C58.6492 35.2443 54.3708 33.9954 49.9879 33.8819V33.8819C45.573 33.9933 41.264 35.2568 37.4879 37.547C33.7119 39.8372 30.6001 43.0747 28.4611 46.9384C27.8849 47.8722 27.5812 48.9485 27.584 50.0458C27.5879 51.1467 27.8817 52.2272 28.4361 53.1784C30.5983 57.016 33.7227 60.2242 37.5018 62.4873C41.2808 64.7503 45.5841 65.99 49.9879 66.0844C54.4123 65.979 58.7321 64.7176 62.518 62.4256C66.2611 60.1667 69.3594 56.9821 71.5147 53.1784C72.1078 52.2138 72.4202 51.103 72.4169 49.9706C72.3937 48.8358 72.0459 47.7313 71.4144 46.788V46.788ZM57.932 54.0304C57.0821 55.7215 55.715 57.0974 54.0294 57.9582C52.3439 58.819 50.4277 59.1198 48.5595 58.8169C46.6591 58.5539 44.898 57.6733 43.5474 56.3109C42.1969 54.9517 41.3185 53.1948 41.0414 51.2988C40.7735 49.435 41.0989 47.5341 41.9715 45.8654C42.844 44.1968 44.2195 42.8449 45.9031 42.0015C47.5885 41.1477 49.5009 40.8495 51.3662 41.1494C53.2602 41.4299 55.0137 42.3123 56.3675 43.6662C57.7214 45.02 58.6038 46.7735 58.8843 48.6675C59.144 50.5109 58.8105 52.3891 57.932 54.0304V54.0304Z" fill="white"/>
<path d="M55.9273 51.2988C55.6997 52.4769 55.1235 53.5595 54.2733 54.4063C53.4217 55.2547 52.3423 55.838 51.1659 56.0853C50.7696 56.1642 50.3669 56.2061 49.963 56.2106C49.1628 56.2028 48.3715 56.0412 47.6324 55.7345C46.5253 55.2955 45.5743 54.5364 44.9008 53.5543C44.352 52.7189 44.0111 51.7644 43.9065 50.7704C43.8019 49.7764 43.9366 48.7718 44.2993 47.8405C44.5857 47.0795 45.0298 46.3878 45.6025 45.8106C46.166 45.221 46.8497 44.7595 47.6073 44.4574C48.3508 44.1363 49.1532 43.9741 49.963 43.9812H50.5644C51.5726 44.1139 52.5302 44.502 53.3461 45.1089C54.3431 45.7856 55.1257 46.7335 55.6015 47.8405C56.0436 48.9372 56.1568 50.1389 55.9273 51.2988Z" fill="white"/>
</svg>
